# xmcd
#
# Track frame offsets:
#	150
#	13445
#	22982
#	37157
#	48052
#	60440
#	71867
#	83182
#
# Disc length: 1258 seconds
#
# Revision: 1
# Processed by: cddbd v1.5.1PL2 Copyright (c) Steve Scherf et al.
# Submitted via: EasyCDDAExtractor 6.2.0.3
#
DISCID=6604e808
DTITLE=The Kendalls - It Don't Feel Like Sinnin' To Me
DYEAR=1988
DGENRE=Country
TTITLE0=Pittsburgh Stealers
TTITLE1=Behind The Locked Door
TTITLE2=You've Lost The Loving Feeling
TTITLE3=Put Off Until Tomorrow
TTITLE4=I Take The Chance
TTITLE5=It Don't Feel Like Sinnin' To Me
TTITLE6=Another Dream Just Came True
TTITLE7=Gone Away
EXTD=Little White Dog Rip
EXTT0=
EXTT1=
EXTT2=
EXTT3=
EXTT4=
EXTT5=
EXTT6=
EXTT7=
PLAYORDER=
